<?xml version="1.0" encoding="UTF-8"?>
<svg width="1200" height="630" xmlns="http://www.w3.org/2000/svg">
  <defs>
    <linearGradient id="bg" x1="0%" y1="0%" x2="100%" y2="100%">
      <stop offset="0%" style="stop-color:#14b8a6"/>
      <stop offset="50%" style="stop-color:#06b6d4"/>
      <stop offset="100%" style="stop-color:#22d3ee"/>
    </linearGradient>
  </defs>
  
  <rect width="1200" height="630" fill="url(#bg)"/>
  
  <rect x="100" y="80" width="1000" height="470" rx="24" fill="rgba(255,255,255,0.95)"/>
  
  <text x="600" y="170" font-family="Arial, sans-serif" font-size="72" font-weight="bold" fill="#1f2937" text-anchor="middle">Leo Planner</text>
  
  <text x="600" y="230" font-family="Arial, sans-serif" font-size="28" fill="#4b5563" text-anchor="middle">Plan with the strength of a lion</text>
  
  <text x="600" y="280" font-family="Arial, sans-serif" font-size="22" fill="#14b8a6" text-anchor="middle">AI-Powered Daily Planner | Task Manager | Password Safe</text>
  
  <rect x="140" y="320" width="180" height="80" rx="12" fill="#f0fdfa" stroke="#14b8a6" stroke-width="2"/>
  <text x="230" y="355" font-family="Arial, sans-serif" font-size="16" font-weight="bold" fill="#0d9488" text-anchor="middle">Voice Commands</text>
  <text x="230" y="380" font-family="Arial, sans-serif" font-size="14" fill="#6b7280" text-anchor="middle">AI-powered input</text>
  
  <rect x="340" y="320" width="180" height="80" rx="12" fill="#f0fdfa" stroke="#14b8a6" stroke-width="2"/>
  <text x="430" y="355" font-family="Arial, sans-serif" font-size="16" font-weight="bold" fill="#0d9488" text-anchor="middle">Task Management</text>
  <text x="430" y="380" font-family="Arial, sans-serif" font-size="14" fill="#6b7280" text-anchor="middle">Smart scheduling</text>
  
  <rect x="540" y="320" width="180" height="80" rx="12" fill="#f0fdfa" stroke="#14b8a6" stroke-width="2"/>
  <text x="630" y="355" font-family="Arial, sans-serif" font-size="16" font-weight="bold" fill="#0d9488" text-anchor="middle">Encrypted Safe</text>
  <text x="630" y="380" font-family="Arial, sans-serif" font-size="14" fill="#6b7280" text-anchor="middle">AES-256 security</text>
  
  <rect x="740" y="320" width="180" height="80" rx="12" fill="#f0fdfa" stroke="#14b8a6" stroke-width="2"/>
  <text x="830" y="355" font-family="Arial, sans-serif" font-size="16" font-weight="bold" fill="#0d9488" text-anchor="middle">Family Sharing</text>
  <text x="830" y="380" font-family="Arial, sans-serif" font-size="14" fill="#6b7280" text-anchor="middle">Group collaboration</text>
  
  <rect x="940" y="320" width="120" height="80" rx="12" fill="#f0fdfa" stroke="#14b8a6" stroke-width="2"/>
  <text x="1000" y="355" font-family="Arial, sans-serif" font-size="16" font-weight="bold" fill="#0d9488" text-anchor="middle">Journal</text>
  <text x="1000" y="380" font-family="Arial, sans-serif" font-size="14" fill="#6b7280" text-anchor="middle">Mood tracking</text>
  
  <rect x="140" y="420" width="140" height="60" rx="10" fill="#ecfdf5"/>
  <text x="210" y="458" font-family="Arial, sans-serif" font-size="14" fill="#059669" text-anchor="middle">Analytics</text>
  
  <rect x="300" y="420" width="140" height="60" rx="10" fill="#ecfdf5"/>
  <text x="370" y="458" font-family="Arial, sans-serif" font-size="14" fill="#059669" text-anchor="middle">Routines</text>
  
  <rect x="460" y="420" width="140" height="60" rx="10" fill="#ecfdf5"/>
  <text x="530" y="458" font-family="Arial, sans-serif" font-size="14" fill="#059669" text-anchor="middle">Events</text>
  
  <rect x="620" y="420" width="140" height="60" rx="10" fill="#ecfdf5"/>
  <text x="690" y="458" font-family="Arial, sans-serif" font-size="14" fill="#059669" text-anchor="middle">Gift Cards</text>
  
  <rect x="780" y="420" width="140" height="60" rx="10" fill="#ecfdf5"/>
  <text x="850" y="458" font-family="Arial, sans-serif" font-size="14" fill="#059669" text-anchor="middle">Timer</text>
  
  <rect x="940" y="420" width="120" height="60" rx="10" fill="#ecfdf5"/>
  <text x="1000" y="458" font-family="Arial, sans-serif" font-size="14" fill="#059669" text-anchor="middle">PWA</text>
  
  <rect x="400" y="500" width="400" height="50" rx="25" fill="#14b8a6"/>
  <text x="600" y="533" font-family="Arial, sans-serif" font-size="22" font-weight="bold" fill="white" text-anchor="middle">Free and Open Source</text>
  
  <text x="600" y="600" font-family="Arial, sans-serif" font-size="24" fill="rgba(255,255,255,0.95)" text-anchor="middle">leo-planner.vercel.app</text>
</svg>
